<?xml version="1.0" encoding="utf-8"?>
<!-- Generator: Adobe Illustrator 21.0.2, SVG Export Plug-In . SVG Version: 6.00 Build 0)  -->
<svg version="1.1" id="Layer_1" xmlns="http://www.w3.org/2000/svg" xmlns:xlink="http://www.w3.org/1999/xlink" x="0px" y="0px"
	 viewBox="0 0 155.1 28.3" style="enable-background:new 0 0 155.1 28.3;" xml:space="preserve">
<style type="text/css">
	.st0{fill-rule:evenodd;clip-rule:evenodd;fill:#FFFFFF;}
	.st1{fill-rule:evenodd;clip-rule:evenodd;fill:#008F47;}
	.st2{fill:#FFFFFF;}
</style>
<g>
	<path class="st0" d="M26.7,12.5c-0.6,4.3-3,7.1-13.7,7.1L12,23.9H3.8l3.1-11.3C13.8,12.5,19.7,12.5,26.7,12.5 M4.2,0h20
		c2.3,0,4.2,1.9,4.2,4.2v20c0,2.3-1.9,4.2-4.2,4.2h-20c-2.3,0-4.2-1.9-4.2-4.2V11c8.3,0,19.8,0,26.8,0c0.2-4.1-3.1-5.2-6.9-5.2H0
		V4.2C0,1.9,1.9,0,4.2,0z"/>
	<path class="st1" d="M26.7,12.5c0,0.1,0,0.1,0,0.2c0,0.1,0,0.1,0,0.2c0,0.1,0,0.1,0,0.2c0,0.1,0,0.1,0,0.2c0,0.1,0,0.1,0,0.2
		c0,0.1,0,0.1,0,0.2c0,0.1,0,0.1,0,0.2c0,0.1,0,0.1-0.1,0.2c0,0.1,0,0.1-0.1,0.2c0,0.1,0,0.1-0.1,0.2c0,0.1,0,0.1-0.1,0.2
		c0,0.1,0,0.1-0.1,0.2c0,0.1,0,0.1-0.1,0.2c0,0.1-0.1,0.1-0.1,0.2c0,0.1-0.1,0.1-0.1,0.2c0,0.1-0.1,0.1-0.1,0.2
		c0,0.1-0.1,0.1-0.1,0.2c0,0.1-0.1,0.1-0.1,0.2c0,0.1-0.1,0.1-0.1,0.2c0,0.1-0.1,0.1-0.1,0.2c0,0.1-0.1,0.1-0.1,0.2
		c0,0-0.1,0.1-0.1,0.1c0,0-0.1,0.1-0.1,0.1c0,0-0.1,0.1-0.1,0.1c0,0-0.1,0.1-0.1,0.1c0,0-0.1,0.1-0.1,0.1c0,0-0.1,0.1-0.1,0.1
		c-0.1,0-0.1,0.1-0.2,0.1c-0.1,0-0.1,0.1-0.2,0.1c-0.1,0-0.1,0.1-0.2,0.1c-0.1,0-0.1,0.1-0.2,0.1c-0.1,0-0.1,0.1-0.2,0.1
		c-0.1,0-0.1,0.1-0.2,0.1c-0.1,0-0.1,0.1-0.2,0.1c-0.1,0-0.1,0.1-0.2,0.1c-0.1,0-0.1,0.1-0.2,0.1c-0.1,0-0.1,0.1-0.2,0.1
		c-0.1,0-0.2,0.1-0.2,0.1h0c-0.1,0-0.2,0.1-0.2,0.1c-0.1,0-0.2,0.1-0.2,0.1c-0.1,0-0.2,0.1-0.3,0.1c-0.1,0-0.2,0.1-0.3,0.1
		c-0.1,0-0.2,0.1-0.3,0.1c-0.1,0-0.2,0.1-0.3,0.1h0c-0.1,0-0.2,0.1-0.3,0.1c-0.1,0-0.2,0-0.3,0.1c-0.1,0-0.2,0-0.3,0.1
		c-0.1,0-0.2,0-0.3,0.1c-0.1,0-0.2,0-0.3,0.1h0c-0.1,0-0.2,0-0.3,0.1c-0.1,0-0.2,0-0.3,0.1h0c-0.1,0-0.2,0-0.4,0h0
		c-0.1,0-0.2,0-0.4,0c-0.1,0-0.3,0-0.4,0c-0.1,0-0.3,0-0.4,0h0c-0.1,0-0.3,0-0.4,0h0c-0.1,0-0.3,0-0.4,0c-0.1,0-0.3,0-0.4,0
		c-0.1,0-0.3,0-0.4,0c-0.1,0-0.3,0-0.4,0h0c-0.2,0-0.3,0-0.5,0c-0.2,0-0.3,0-0.5,0c-0.2,0-0.3,0-0.5,0h0c-0.2,0-0.3,0-0.5,0h0
		L12,23.9H3.8l3.1-11.3C13.8,12.5,19.7,12.5,26.7,12.5"/>
	<path class="st0" d="M140.4,6.9c0.3-1,0.8-1.8,1.3-2.3c0.5-0.5,1.1-0.9,1.5-1.1c0.5-0.2,1-0.4,1.5-0.5c0.5-0.1,1-0.2,1.4-0.2
		c0.4,0,0.9-0.1,1.4-0.1c1,0,1.8,0.1,2.4,0.2c0.6,0.1,1,0.2,1.2,0.3c0.2,0.1,0.5,0.2,0.9,0.4c0.4,0.2,0.8,0.5,1.1,0.8
		c0.7,0.6,1.2,1.5,1.6,2.5c0.3,1,0.5,2.1,0.5,3.2c0,1.1-0.2,2.1-0.5,3.2c-0.3,1.1-0.9,1.9-1.6,2.6c-0.7,0.6-1.6,1.1-2.6,1.3
		c-1,0.2-2,0.3-2.9,0.3c-0.9,0-1.8-0.1-2.7-0.3c-0.3-0.1-0.6-0.1-0.8-0.2c-0.2-0.1-0.6-0.2-0.9-0.4c-0.4-0.2-0.7-0.4-1.1-0.8
		c-0.4-0.3-0.7-0.7-0.9-1.1c-0.3-0.4-0.5-1-0.7-1.8c-0.2-0.8-0.3-1.7-0.3-2.8C139.9,8.9,140.1,7.9,140.4,6.9 M143.6,7.9
		c-0.2,0.6-0.3,1.3-0.3,2.1c0,0.8,0.1,1.6,0.4,2.7c0.3,1,0.8,1.7,1.6,1.9c0.8,0.3,1.5,0.4,2.1,0.4c0.5,0,1.1-0.1,1.6-0.2
		c1.2-0.4,2-1.3,2.3-2.6c0.2-0.7,0.3-1.4,0.3-2.1c0-0.8-0.1-1.4-0.2-1.9c-0.1-0.5-0.2-0.8-0.3-0.9c0-0.1-0.2-0.3-0.3-0.6
		c-0.2-0.3-0.4-0.5-0.7-0.8c-0.3-0.3-0.6-0.4-0.9-0.5c-0.3-0.1-0.6-0.2-0.9-0.2c-0.3,0-0.5-0.1-0.8-0.1c-0.5,0-1,0.1-1.5,0.2
		C144.8,5.7,144.1,6.6,143.6,7.9z M132.2,5.5h-3.9v3.6h3.9c0.6,0,1.1,0,1.4-0.1c0.4-0.1,0.7-0.2,1-0.5c0.3-0.3,0.4-0.7,0.4-1.2
		c0-0.8-0.2-1.3-0.7-1.5C133.8,5.6,133.1,5.5,132.2,5.5z M128.3,17.2h-3.2V2.9h7.8c0.4,0,0.8,0,1.2,0.1c0.4,0,0.9,0.1,1.4,0.2
		c0.5,0.1,1,0.4,1.4,0.8c0.4,0.4,0.8,0.9,1,1.4c0.2,0.6,0.3,1.2,0.3,1.8c0,0.7-0.1,1.3-0.3,1.8c-0.2,0.6-0.6,1-1,1.4
		c-0.4,0.4-1,0.6-1.7,0.8l3.7,6h-3.6l-3.4-5.6h-3.7V17.2z M118.6,2.9h3.3v14.3h-3.3V2.9z M115.8,2.9v2.5h-5.2c-1.1,0-2,0.3-2.6,0.8
		c-0.6,0.6-0.9,1.4-0.9,2.5h8.8v2.5H107c0,1.2,0.2,2,0.7,2.5c0.5,0.5,0.9,0.8,1.3,0.9c0.4,0.1,0.9,0.1,1.6,0.1h5.2v2.5h-5.4
		c-1,0-1.9-0.1-2.6-0.2c-0.7-0.2-1.4-0.5-2.1-1c-0.9-0.7-1.5-1.5-1.8-2.5c-0.4-1-0.5-2-0.5-3.1l0-0.9c0-0.5,0.1-1,0.2-1.5
		c0.1-0.5,0.3-1,0.4-1.4c0.2-0.4,0.4-0.8,0.6-1.2c0.2-0.3,0.6-0.7,1-1.1c0.4-0.4,1-0.7,1.6-0.9c0.6-0.2,1.2-0.3,1.7-0.4
		c0.5-0.1,1.1-0.1,1.6-0.1H115.8z M89,17.2V2.9h3.2v5.8H98V2.9h3.2v14.3H98v-6h-5.8v6H89z M75.9,17.2h-3.3V2.9h4l6.2,10.3L82.7,2.9
		h3.2v14.3h-3.7L75.8,6.4L75.9,17.2z M66.1,2.9h3.3v14.3h-3.3V2.9z M53.6,17.2h-3.2V2.9h6.9c1.1,0,1.9,0,2.6,0.1
		c0.7,0.1,1.3,0.3,1.8,0.6c0.7,0.4,1.2,0.9,1.6,1.6c0.4,0.7,0.5,1.5,0.5,2.3c0,0.7-0.1,1.4-0.4,2.1c-0.3,0.7-0.7,1.2-1.2,1.5
		c-0.5,0.4-1,0.6-1.4,0.7c-0.4,0.1-0.7,0.2-1,0.2c-0.2,0-0.5,0.1-0.7,0.1h-1.8h-3.9V17.2z M40.9,11.9V9.5h7.1v5.7
		c-0.7,0.6-1.7,1.1-3,1.6c-1.3,0.4-2.7,0.7-4,0.7c-1.7,0-3.2-0.3-4.5-0.9c-1.3-0.6-2.2-1.5-2.9-2.7c-0.6-1.2-1-2.4-1-3.8
		c0-1.5,0.4-2.8,1.1-4c0.7-1.2,1.8-2,3.1-2.7c1.1-0.5,2.4-0.7,3.9-0.7c2,0,3.6,0.4,4.8,1.1c1.1,0.7,1.9,1.8,2.2,3.1l-3.3,0.5
		c-0.2-0.7-0.7-1.3-1.3-1.7c-0.6-0.4-1.4-0.6-2.4-0.6c-1.4,0-2.6,0.4-3.5,1.2c-0.9,0.8-1.3,2-1.3,3.6c0,1.7,0.4,3,1.3,3.8
		c0.9,0.9,2,1.3,3.4,1.3c0.7,0,1.4-0.1,2.1-0.4c0.7-0.2,1.3-0.5,1.8-0.9v-1.8H40.9z M57.3,5.5h-3.7v4.2h3.9c1.9,0,2.9-0.7,2.9-2.1
		c0-0.8-0.3-1.4-0.8-1.7C59,5.6,58.3,5.5,57.3,5.5z"/>
	<path class="st2" d="M137.2,22.6c0.4,0.1,0.6,0.3,0.8,0.6c0.2,0.2,0.3,0.5,0.3,0.9c0,0.5-0.2,0.9-0.5,1.2c-0.3,0.3-0.8,0.4-1.3,0.4
		c-0.4,0-0.8-0.1-1.1-0.3c-0.3-0.2-0.5-0.5-0.6-0.9l0.6-0.3c0.1,0.3,0.2,0.6,0.4,0.7c0.2,0.2,0.4,0.2,0.7,0.2c0.3,0,0.6-0.1,0.8-0.3
		c0.2-0.2,0.3-0.4,0.3-0.7c0-0.2-0.1-0.4-0.2-0.6c-0.1-0.2-0.4-0.3-0.6-0.4l-0.7-0.3c-0.4-0.1-0.6-0.3-0.8-0.6
		c-0.2-0.2-0.3-0.5-0.3-0.8c0-0.4,0.1-0.7,0.4-0.9c0.3-0.2,0.7-0.4,1.1-0.4c0.3,0,0.6,0.1,0.9,0.2c0.2,0.1,0.4,0.3,0.6,0.6l-0.5,0.3
		c-0.1-0.2-0.3-0.4-0.4-0.5c-0.2-0.1-0.3-0.1-0.5-0.1c-0.2,0-0.5,0.1-0.6,0.2c-0.2,0.1-0.2,0.3-0.2,0.5c0,0.2,0.1,0.3,0.2,0.5
		c0.1,0.1,0.3,0.3,0.6,0.4L137.2,22.6z M132.8,22.9c0,0.4-0.1,0.7-0.2,1.1c-0.1,0.3-0.4,0.6-0.6,0.9c-0.3,0.3-0.6,0.5-1,0.6
		c-0.4,0.1-0.7,0.2-1.1,0.2c-0.4,0-0.8-0.1-1.1-0.2c-0.4-0.1-0.7-0.3-1-0.6c-0.3-0.3-0.5-0.6-0.6-0.9c-0.1-0.3-0.2-0.7-0.2-1.1
		c0-0.4,0.1-0.7,0.2-1.1c0.1-0.3,0.4-0.6,0.6-0.9c0.3-0.3,0.6-0.5,1-0.6c0.4-0.1,0.7-0.2,1.1-0.2c0.4,0,0.8,0.1,1.1,0.2
		c0.4,0.1,0.7,0.3,1,0.6c0.3,0.3,0.5,0.6,0.6,0.9C132.7,22.2,132.8,22.5,132.8,22.9z M129.8,25.1c0.3,0,0.6-0.1,0.9-0.2
		c0.3-0.1,0.5-0.3,0.7-0.5c0.2-0.2,0.4-0.4,0.5-0.7c0.1-0.3,0.2-0.5,0.2-0.8c0-0.3-0.1-0.6-0.2-0.8c-0.1-0.3-0.3-0.5-0.5-0.7
		c-0.2-0.2-0.5-0.4-0.7-0.5c-0.3-0.1-0.6-0.2-0.9-0.2c-0.3,0-0.6,0.1-0.9,0.2c-0.3,0.1-0.5,0.3-0.7,0.5c-0.2,0.2-0.4,0.4-0.5,0.7
		c-0.1,0.3-0.2,0.5-0.2,0.8c0,0.3,0.1,0.6,0.2,0.8c0.1,0.3,0.3,0.5,0.5,0.7c0.2,0.2,0.5,0.4,0.7,0.5C129.2,25,129.5,25.1,129.8,25.1
		z M123.2,25.5v-4.7h-1.6v-0.6h3.8v0.6h-1.6v4.7H123.2z M114.9,25.5v-5.5l4.1,4.2v-4h0.6v5.5l-4.1-4.2v3.9H114.9z M109.6,25.5v-5.3
		h2.9v0.6h-2.3v1.5h2.3v0.6h-2.3v2h2.3v0.6H109.6z M104.3,25.7l-1.7-3.8l-0.7,3.6h-0.6l1.1-5.5l1.9,4.3l1.9-4.3l1.1,5.5h-0.6
		l-0.7-3.6L104.3,25.7z M98.4,25.5v-5.3h0.7v5.3H98.4z M91.5,25.5v-5.3h1.1c0.8,0,1.3,0,1.7,0.1c0.3,0.1,0.6,0.2,0.9,0.4
		c0.3,0.2,0.6,0.5,0.7,0.9C96,22,96,22.4,96,22.9c0,0.5-0.1,0.9-0.2,1.2c-0.2,0.4-0.4,0.7-0.7,0.9c-0.2,0.2-0.5,0.3-0.8,0.4
		c-0.3,0.1-0.8,0.1-1.5,0.1h-0.2H91.5z M92.2,24.9h0.4c0.7,0,1.2,0,1.4-0.1c0.3-0.1,0.5-0.2,0.7-0.3c0.2-0.2,0.4-0.4,0.5-0.7
		c0.1-0.3,0.2-0.6,0.2-1c0-0.4-0.1-0.7-0.2-1c-0.1-0.3-0.3-0.5-0.5-0.7c-0.2-0.1-0.4-0.2-0.7-0.3c-0.3-0.1-0.7-0.1-1.4-0.1h-0.4
		V24.9z M84.1,25.5v-5.5l4.1,4.2v-4h0.6v5.5l-4.1-4.2v3.9H84.1z M78.8,25.5v-5.3h2.9v0.6h-2.3v1.5h2.3v0.6h-2.3v2h2.3v0.6H78.8z
		 M73.4,25.5v-5.3h2.9v0.6h-2.3v1.5h2.3v0.6h-2.3v2h2.3v0.6H73.4z M68.6,20.8v1.8h0.5c0.5,0,0.9-0.1,1-0.2c0.2-0.1,0.3-0.3,0.3-0.7
		c0-0.3-0.1-0.6-0.3-0.7c-0.2-0.1-0.5-0.2-1-0.2H68.6z M68,25.5v-5.3h1.3c0.4,0,0.6,0,0.8,0.1c0.2,0,0.3,0.1,0.5,0.2
		c0.2,0.1,0.3,0.3,0.4,0.5c0.1,0.2,0.1,0.4,0.1,0.7c0,0.4-0.1,0.8-0.4,1c-0.3,0.2-0.6,0.3-1.1,0.3h-0.1l2.1,2.5h-0.8l-2-2.5h-0.1
		v2.5H68z M63.4,22.6h0.3c0.6,0,1-0.1,1.1-0.2c0.2-0.1,0.3-0.3,0.3-0.7c0-0.3-0.1-0.6-0.3-0.7c-0.2-0.1-0.6-0.2-1.1-0.2h-0.3V22.6z
		 M63.4,23.2v2.4h-0.6v-5.3h1.2c0.4,0,0.7,0,0.9,0.1c0.2,0,0.4,0.1,0.5,0.2c0.2,0.1,0.3,0.3,0.4,0.5c0.1,0.2,0.2,0.4,0.2,0.7
		c0,0.3-0.1,0.5-0.2,0.7c-0.1,0.2-0.2,0.4-0.4,0.5c-0.1,0.1-0.3,0.2-0.5,0.2c-0.2,0-0.5,0.1-0.9,0.1h-0.2H63.4z M57.5,25.7L55.7,22
		L55,25.5h-0.6l1.1-5.5l1.9,4.3l1.9-4.3l1.1,5.5h-0.6L59.2,22L57.5,25.7z M49.5,25.5v-5.3h2.9v0.6h-2.3v1.5h2.3v0.6h-2.3v2h2.3v0.6
		H49.5z"/>
</g>
</svg>
